<svg xmlns="http://www.w3.org/2000/svg" xml:space="preserve" id="Layer_1" x="0" y="0" version="1.1" viewBox="0 0 1106 259">
  <style>
    .st1{fill:#8a1538}.st3{fill:#3c6596}.st4{fill:#fbfbfc}.st5{fill:#fff}
  </style>
  <path fill="none" stroke="#fff" stroke-width="1.044" d="M218 108h797"/>
  <path d="M1106 0H0v184.7h22V9h197v98.4l.2.1h796.2v1H219v76.2h887zM120.5 259l18.1-19h-36.2z" class="st1"/>
  <path fill="none" d="M22 184.7V240h80.4l-52.7-55.3zM138.6 240H219v-55.3h-27.7z"/>
  <path d="M61 161.7c-.6-.6-.8-1.3-.8-2.1v-30.1c0-.7-.2-1.2-.7-1.7-6.4-6.3-12.7-12.7-19.1-19.1-.9-.9-.8-.7 0-1.5l19-19c.5-.5.8-1 .8-1.8V40.9c0-.9 0-.9.9-.9h45.5c.8 0 1.3-.2 1.8-.8 3.8-3.9 7.7-7.7 11.5-11.5l.5-.5c.2-.2.4-.2.6 0l.5.5L133 39.2c.5.5 1.1.7 1.8.7h45.1c1.4 0 1.3-.2 1.3 1.3v45.1c0 .8.2 1.3.8 1.8l18.9 18.9c1 1 1 .7 0 1.7L182 127.6c-.6.6-.8 1.1-.8 1.9v30.3c0 .7-.2 1.2-.7 1.7-7.1 7.5-14.3 15-21.4 22.5h13.2c5.9-6.2 11.9-12.5 17.8-18.7.5-.5.7-1 .7-1.7v-27.7c0-.7.2-1.2.7-1.7 8.4-8.4 16.9-16.8 25.3-25.3.9-.9.9-.7 0-1.6l-25.2-25.2c-.6-.6-.8-1.1-.8-1.9V31.6c0-.4.1-.9-.1-1.3-.4-.2-.8-.1-1.2-.1h-48.8c-.8 0-1.3-.2-1.8-.8-5.8-5.8-11.6-11.7-17.5-17.5-.3-.3-.5-.6-.8-.7-.3.2-.6.5-.8.7-5.8 5.8-11.7 11.6-17.5 17.5-.6.6-1.1.8-1.9.8H51.7c-1.4 0-1.2-.2-1.2 1.3v48.7c0 .7-.2 1.3-.7 1.8l-25.2 25.2c-.3.2-.6.4-.9 1 .3.2.6.5.9.8l25.1 25.1c.5.5.7 1 .7 1.7v27.3c0 .9.2 1.6.9 2.3L69 184h13.2c-7-7.4-14.1-14.9-21.2-22.3z" class="st1"/>
  <path d="M137.7 44c.5.6 1.1.8 1.9.8h35.9c.9 0 .8.1.8 1.3v36.1c0 .3.1.5.3.7.3.3.6.6 1 .9.5.5 1.1 1.1 1.6 1.7.1-.1.1-.2.1-.4 0-.3 0-.5-.1-.7V42.5c.1-.5-.1-.6-.6-.6h-42.2c-.2 0-.4 0-.7.1.7.7 1.4 1.3 2 2z" class="st1"/>
  <path d="M156.4 62.8c6.2 6.1 12.3 12.3 18.5 18.4h.1c0-.1.1-.1.1-.1.2-.3.1-.6.1-.9V46.5c0-.5-.1-.6-.6-.6H141c-.4 0-.7-.1-1.2.1l.1.1c2.8 2.8 5.5 5.6 8.3 8.4 2.7 2.7 5.5 5.5 8.2 8.3z" class="st3"/>
  <path d="M218.6 108.5c-.5.2-1 .4-1.3.8l-16.8 16.8c-2.8 2.8-5.6 5.6-8.4 8.3-.5.5-.6.9-.6 1.6v27.7c0 .8-.2 1.3-.7 1.8-5.9 6.2-11.7 12.3-17.6 18.5H192l-.7.7H219v-76.2h-.4zM49 184h19.2c-10.3-10.8-17.6-18.5-17.7-18.5-.8-.8-.8-1.1-.8-1.8V136c0-.7-.2-1.2-.7-1.7l-25.4-25.4-.4-.4c-.4-.4-.4-.6 0-1.1l.4-.4L49 81.6c.5-.5.7-1 .7-1.7V30.6c0-1.4-.1-1.2 1.2-1.2h49.2c.8 0 1.3-.2 1.9-.8 5.9-6 11.9-11.9 17.8-17.8.9-.9.7-.8 1.5 0l17.8 17.8c.6.6 1.1.8 1.9.8h49c1.4 0 1.4 0 1.4 1.4v48.8c0 1 .3 1.6 1 2.3l16.5 16.5 8.8 8.8 1.3.2V9H22v175.7h27.7l-.7-.7zm123.5.7c-17 17.9-34.1 35.8-51.1 53.7-.2.3-.5.5-.7.9-.5-.5-.9-.9-1.3-1.4-13.5-14.2-35.1-37-50.6-53.2H49.7l52.7 55.3h36.2l52.7-55.3h-18.8z" class="st1"/>
  <path d="M121.4 223.6c-.8.8-.7.8-1.4 0-1.3-1.4-2.6-2.7-3.9-4.1-11.1-11.6-22.1-23.2-33.2-34.8H69.7c6.6 6.9 13.2 13.8 19.8 20.8l.6.6 6.6-5.9 23.9 25.5 26.2-27.1 5.4 5.4-31.6 34.1-5.5-5.7c1.6 1.7 3.2 3.3 4.7 5 .3.3.5.6.9.8.2-.3.5-.5.7-.7 16.7-17.6 33.5-35.2 50.2-52.8h-13.2c-12.3 13-24.7 25.9-37 38.9zm37-38.9h13.2c.2-.2.4-.5.7-.7h-13.2l-.7.7zm32.9 0 .7-.7h-18.8c-.2.2-.4.5-.7.7h18.8zM49 184l.7.7h19.2c-.2-.2-.4-.5-.7-.7H49zm33.9.7c-.2-.2-.4-.5-.7-.7H69c.2.2.4.5.7.7h13.2z" class="st1"/>
  <path d="m152.2 204-5.4-5.4-26.2 27.1-23.9-25.5-6.6 5.9c8.3 8.7 16.6 17.5 25 26.3l5.5 5.7 31.6-34.1zM64.6 83.1c.4-.4.5-.7.5-1.2V46.2c0-1.5-.2-1.3 1.4-1.3h33.8c.9 0 1.8.2 2.6-.1s1.3-1.1 1.9-1.7c.3-.3.7-.5.8-1-.3-.1-.6-.1-.9-.1H62.6c-.3 0-.5.2-.5.5v41.9c0 .2-.1.6.1 1.2.8-.9 1.6-1.7 2.4-2.5zm50.1 97.2c-.1 0-.1.1-.1.1l.1-.1z" class="st1"/>
  <path d="M67.5 46h-.6c-.5-.1-.7.2-.7.7v33.7c0 .3-.1.6 0 .8L101.4 46c-.3-.1-.6 0-.9 0h-33z" class="st3"/>
  <path d="M114.6 180.4s0-.1 0 0c.2-.4.1-.7 0-1.1-.2-1.1-.5-2.2-.7-3.3-.1-.7-.5-1.3-1-1.8l-65.4-65.4c-1-1-1-.8 0-1.8 21.3-21.4 42.7-42.7 64-64.1l8.6-8.6c.5-.5.5-.5 1.1 0l.4.4L171 84.1l23.1 23.1c.7.7.8.6 0 1.4l-.1.1-49.1 49.1-16.5 16.5c-.4.4-.7.8-.8 1.4-.2 1.3-.5 2.5-.8 3.8 0 .2-.2.4 0 .7.4-.1.6-.5.8-.7l70.8-70.8.5-.5c.2-.2.2-.4 0-.6l-.4-.4L178 86.7c-19-18.7-37.8-37.5-56.6-56.4-.2-.2-.4-.5-.9-.7-.2.3-.4.6-.7.8-25.5 25.6-51 51.2-76.6 76.7-.9.9-.9.9 0 1.8 23.5 23.5 47.1 47.1 70.6 70.7.3.3.7.4.8.8z" class="st1"/>
  <path d="M175.1 136.1c.1-.5.1-.8.1-1.3-.5.2-.8.6-1 .8l-21.5 21.5-26.2 26.2c-.2.2-.4.4-.6.7-.1.2-.2.4-.3.7-1.4 6.8-2.9 13.6-4.4 20.5-.1.6-.2 1.2-.5 1.9-.2-.2-.2-.5-.3-.7-1.5-7.1-3.1-14.2-4.6-21.3 0-.1-.1-.3-.1-.4-.1-.3-.2-.5-.3-.7-.1-.2-.3-.4-.5-.6-16-15.9-31.9-31.9-47.9-47.8-.2-.2-.4-.5-.7-.6-.2.3-.1.6-.1.9v21.8c0 .6.2 1 .6 1.4l5.1 5.4L90.5 184c.2.2.4.5.7.7L120 215c.2.3.4.6.9.7 1.2-1.2 2.4-2.5 3.5-3.7 8.7-9.1 17.3-18.2 26-27.3.2-.2.4-.5.7-.7 7.8-8.2 15.7-16.5 23.5-24.7.5-.5.8-1.1.7-1.8-.2-7.1-.2-14.3-.2-21.4z" class="st3"/>
  <path d="M120.7 35.8c-2.4 2.4-4.8 4.8-7.1 7.2h14.3l-7.2-7.2zm58 124.9c.5-.5.7-1 .7-1.7v-27.5c-.1-.1-.1-.5-.1-.9-1 .7-1.5 1.5-2.3 2.1-.6.5-.8 1.1-.8 1.8v23.3c0 .7-.2 1.2-.7 1.7-7.8 8.2-15.6 16.3-23.3 24.5h4.3c7.4-7.8 14.8-15.5 22.2-23.3zm-113.1-1.3c-.4-.5-.6-.9-.6-1.6v-21.6c0-.9.2-1.9-.1-2.8-.3-.9-1.3-1.4-1.9-2.1-.3-.3-.5-.6-.9-.7-.1.4-.1.8-.1 1.1v27c0 .9.2 1.5.9 2.2 7.3 7.7 14.7 15.4 22 23.1h4.2c-7.8-8.2-15.7-16.4-23.5-24.6zm55.8 56.9c-.2.2-.4.4-.5.6-.2.2-.4.2-.6 0-.1-.1-.2-.2-.3-.4l-30.3-31.8h-4.2c11.5 12.1 23 24.1 34.5 36.2.2.2.4.5.9.6.2-.2.4-.5.6-.7 11.4-12 22.9-24.1 34.3-36.1h-4.3c-10 10.5-20.1 21.1-30.1 31.6zM89.1 184h-4.2c.2.2.4.5.7.7h4.2c-.3-.2-.5-.5-.7-.7zm63.1 0c-.2.2-.4.5-.7.7h4.3c.2-.2.4-.5.7-.7h-4.3zm-4.1-129.6c-2.7-2.8-5.5-5.5-8.3-8.4h-.1l8.4 8.4zm31.1 31.1c-.6-.6-1.1-1.1-1.6-1.7.5.6 1 1.1 1.6 1.7zm-4.1-40.7h.4-.4c-.1 0 0 0 0 0zm-38.2-2.9h-.5.5zm42.3.6v41.9c.1.2.1.5.1.7.1-.3 0-.5 0-.7V43.1c0-.2 0-.4-.1-.6.1-.5-.1-.7-.5-.6h-.1c.5 0 .7.1.6.6zM92.1 65.4c0-.3.1-.7-.1-1-4.9 5-9.7 9.8-14.7 14.8h14.3c.4 0 .5.2.5.5v19.9c0 .9 0 .9.7.9h19.6c.5 0 .7-.1.7-.7V79.5c0-.4-.2-.5-.5-.5h-20c-.4 0-.5-.1-.5-.5V65.4zm21-2.4V43.4c-.4.1-.5.3-.7.4-6.7 6.7-13.3 13.3-19.9 20v.1s0 .1.1.2h19.5c1.2 0 1 .1 1-1.1zm0 109.8v-56.3c0-1.3.1-1.1-1.1-1.1H92.5c-.4 0-.5.2-.5.5v20.3c0 .4-.2.5-.5.5H78.1c-.3 0-.6-.1-.9.1 12 12.1 23.9 24 35.9 36zM77 80.2c0-.2.1-.5-.1-.6C70 86.5 63 93.4 56.1 100.4c.1.1.3.1.5.1h19.6c.8 0 .8 0 .8-.9V80.2zm-28.2 28.3 6.3 6.3c.1.1.2.4.5.3.1-4.7.1-9.5.1-14.6l-6.9 6.9c-.5.5-.5.6 0 1.1zm27.4 7H57c-.4 0-.7 0-1 .1 0 .2.1.3.2.4 6.9 6.8 13.7 13.7 20.6 20.5h.1s.1 0 .1-.1v-20c0-.9 0-.9-.8-.9zm52.1-15.9c0 .9 0 .9.7.9h19.6c.7 0 .7 0 .7-.7V79.7c0-.4.1-.5.5-.5H163c.3 0 .7 0 1.1-.1-1.3-1.6-14.1-14.3-14.8-14.6v14.1c0 .4-.2.5-.5.5h-19.9c-.5 0-.7.2-.6.6v19.9zm-.2 18.5v53.6c0 .3-.1.7.1 1 12.1-12 24-23.9 36-35.9h-14.5c-.4 0-.5-.2-.5-.5v-19.9c0-.9 0-.9-.8-.9h-19.7c-.5 0-.6.2-.6.6v2zm.2-74.7c-.2.2-.1.4-.1.7v19.4c0 .4.2.5.5.5h19.1c.4 0 .7.1 1.1-.1-1.7-1.9-19.9-20.1-20.6-20.5zm36 74.6v17.5c0 .3-.1.7.1 1.1l21-21c-.2 0-.3-.1-.4-.1h-20.1c-.5-.1-.6.2-.6.6v1.9zm28.3-9.4c.6-.6.5-.5-.1-1.1l-6.2-6.2c-.2-.3-.3-.5-.6-.5v14.5c.3 0 .4-.2.5-.3 2.1-2.1 4.3-4.2 6.4-6.4zm-27.6-8.1h19.4c.3 0 .6 0 .9-.1-6.9-7-13.8-13.9-20.7-20.9h-.1c-.1 0 0 .1-.1.1 0 .1-.1.1-.1.2v20c0 .5.1.8.7.7z" class="st1"/>
  <path d="M124.3 212c-1.1 1.2-2.3 2.5-3.5 3.7-.5-.1-.7-.4-.9-.7l-28.8-30.3h-1.4l30.3 31.8c.1.2.2.2.3.3.2.2.4.3.6.1.1-.2.3-.4.5-.6 10-10.5 20.1-21.1 30.1-31.6h-1.2c-8.7 9.1-17.3 18.2-26 27.3z" class="st4"/>
  <path d="M120 223.6c.7.8.6.8 1.4 0 12.3-13 24.7-25.9 37-38.9h-2.6c-11.5 12-22.9 24.1-34.3 36.1-.2.2-.4.5-.6.7-.5-.1-.7-.4-.9-.6-11.5-12.1-23-24.1-34.5-36.2h-2.7c11.1 11.6 22.1 23.2 33.2 34.8 1.4 1.4 2.7 2.7 4 4.1zM200.9 107 182 88.1c-.6-.5-.8-1-.8-1.8V41.2c0-1.5.1-1.3-1.3-1.3h-45.1c-.7 0-1.3-.2-1.8-.7l-11.5-11.5-.5-.5c-.2-.2-.4-.2-.6 0l-.5.5c-3.8 3.8-7.7 7.6-11.5 11.5-.5.6-1 .8-1.8.8H61.1c-.9 0-.9 0-.9.9v45.5c0 .8-.3 1.3-.8 1.8l-19 19c-.8.8-.9.6 0 1.5 6.4 6.4 12.7 12.8 19.1 19.1.5.5.7 1 .7 1.7v30.1c0 .8.2 1.5.8 2.1 7.1 7.4 14.2 14.9 21.2 22.3h2.7c-7.3-7.7-14.7-15.4-22-23.1-.7-.7-.9-1.3-.9-2.2v-27c0-.3 0-.7.1-1.1.4.1.6.4.9.7.6.7 1.6 1.2 1.9 2.1.3.9.1 1.9.1 2.8v21.6c0 .7.2 1.1.6 1.6 7.8 8.2 15.7 16.4 23.5 24.6h1.4l-18.6-19.5-5.1-5.4c-.4-.4-.6-.8-.6-1.4v-21.8c0-.3-.1-.6.1-.9.3.1.5.4.7.6 16 15.9 31.9 31.9 47.9 47.8.2.2.4.4.5.6h10.5c.2-.3.3-.5.6-.7l26.2-26.2 21.5-21.5c.2-.2.5-.6 1-.8 0 .5 0 .8-.1 1.3v21.4c.1.7-.2 1.3-.7 1.8-7.8 8.2-15.7 16.5-23.5 24.7h1.2c7.8-8.2 15.6-16.3 23.3-24.5.5-.5.7-1 .7-1.7v-23.3c0-.7.2-1.3.8-1.8.8-.6 1.3-1.4 2.3-2.1 0 .4 0 .8.1.9V159c0 .7-.2 1.2-.7 1.7-7.4 7.8-14.8 15.5-22.2 23.3h2.6c7.1-7.5 14.3-15 21.4-22.5.5-.5.7-1 .7-1.7v-30.3c0-.8.2-1.3.8-1.9l18.9-18.9c1.1-1 1.1-.7.1-1.7zm-64.5-65.1h42.3c.4-.1.6.1.6.6v41.9c0 .2.1.4 0 .7 0 .1 0 .2-.1.4-.6-.6-1.1-1.1-1.6-1.7-.3-.3-.6-.6-1-.9-.2-.2-.3-.4-.3-.7V46.1c0-1.2.1-1.3-.8-1.3h-35.9c-.8 0-1.4-.2-1.9-.8-.6-.7-1.3-1.3-2-2 .2-.1.5-.1.7-.1zm3.4 4.1c.5-.2.8-.1 1.2-.1h33.7c.4-.1.6.1.6.6v33.7c0 .3 0 .6-.1.9 0 .1-.1.1-.1.1h-.2c-6.2-6.1-12.3-12.3-18.5-18.4-2.7-2.8-5.5-5.6-8.3-8.4l-8.3-8.3V46zM62.1 84.4V42.5c0-.3.2-.5.5-.5h42.1c.3 0 .6 0 .9.1-.1.5-.5.7-.8 1-.6.6-1.1 1.4-1.9 1.7s-1.7.1-2.6.1H66.5c-1.6 0-1.4-.2-1.4 1.3v35.7c0 .5-.1.8-.5 1.2-.8.8-1.6 1.6-2.4 2.5-.2-.6-.1-1-.1-1.2zM101.4 46 66.2 81.2c-.1-.2 0-.5 0-.8V46.7c0-.5.2-.8.7-.7h33.6c.3 0 .6-.1.9 0zm12.2-3c2.3-2.4 4.7-4.8 7.1-7.2l7.2 7.2h-14.3zm85.3 65.2-.5.5-70.8 70.8c-.2.2-.4.6-.8.7-.2-.3 0-.5 0-.7.3-1.3.6-2.5.8-3.8.1-.6.4-1 .8-1.4l16.5-16.5 49.1-49.1.1-.1c.8-.8.7-.7 0-1.4L171 84.1l-49.4-49.4-.4-.4c-.6-.5-.6-.5-1.1 0l-8.6 8.6c-21.3 21.4-42.7 42.7-64 64.1-1 1-1 .8 0 1.8l65.4 65.4c.5.5.9 1.1 1 1.8.2 1.1.5 2.2.7 3.3.1.4.2.7.1 1l-.1.1c-.1-.4-.5-.5-.8-.8-23.5-23.6-47.1-47.2-70.6-70.7-.9-.9-.9-.9 0-1.8C68.8 81.6 94.3 56 119.8 30.4c.3-.2.5-.5.7-.8.5.2.7.5.9.7C140.2 49.2 159 68 178 86.7l20.5 20.5.4.4c.2.2.2.4 0 .6zm-70-29.1h19.9c.3 0 .5-.1.5-.5V64.5c.7.3 13.5 13 14.8 14.6-.4.1-.8.1-1.1.1h-13.2c-.4 0-.5.1-.5.5v20.1c0 .7 0 .7-.7.7H129c-.7 0-.7 0-.7-.9V79.7c-.1-.4.1-.6.6-.6zM147.8 64h-19.1c-.3 0-.5-.1-.5-.5V44.1c0-.3-.1-.5.1-.7.7.4 18.9 18.6 20.6 20.5-.4.2-.7.1-1.1.1zm-19.1 51.5h19.7c.8 0 .8 0 .8.9v19.9c0 .3.1.5.5.5h14.5c-12 12-23.9 23.9-36 35.9-.2-.3-.1-.7-.1-1v-55.6c0-.4.1-.6.6-.6zm36.2 0H185c.1 0 .2.1.4.1l-21 21c-.2-.4-.1-.8-.1-1.1v-19.4c0-.4.1-.7.6-.6zm-.6-15.7v-20c0-.1.1-.1.1-.2.1 0 0-.1.1-.1h.1c6.9 7 13.8 13.9 20.7 20.9-.3.1-.6.1-.9.1H165c-.6.1-.7-.2-.7-.7zm21.4 15.5v-14.5c.3 0 .4.2.6.5l6.2 6.2c.6.6.7.5.1 1.1-2.1 2.2-4.3 4.3-6.4 6.4-.1.1-.2.3-.5.3zM92.6 79h20c.3 0 .5.1.5.5v20.3c0 .6-.2.7-.7.7H92.8c-.7 0-.7 0-.7-.9V79.7c0-.3-.1-.5-.5-.5H77.3c5-5 9.8-9.8 14.7-14.8.2.3.1.7.1 1v13.1c0 .4.1.5.5.5zm-14.5 57.7h13.4c.3 0 .5-.1.5-.5v-20.3c0-.3.1-.5.5-.5H112c1.2 0 1.1-.2 1.1 1.1v56.3c-12-12-23.9-23.9-35.9-36 .3-.2.6-.1.9-.1zm34-72.6H92.6c-.1-.1-.1-.2-.1-.2v-.1c6.6-6.7 13.2-13.3 19.9-20 .2-.1.3-.3.7-.4V63c0 1.2.2 1.1-1 1.1zm-35.9 36.4H56.6c-.2 0-.4 0-.5-.1 6.9-7 13.9-13.9 20.8-20.8.2.1.1.4.1.6v19.4c0 .9 0 .9-.8.9zm.8 15.9v20c0 .1-.1.1-.1.1h-.1c-6.9-6.8-13.7-13.7-20.6-20.5-.1-.1-.2-.2-.2-.4.3-.1.6-.1 1-.1h19.2c.8 0 .8 0 .8.9zm-21.3-15.9c0 5.1 0 9.9-.1 14.6-.3.1-.4-.2-.5-.3l-6.3-6.3c-.5-.5-.5-.6 0-1.1l6.9-6.9z" class="st4"/>
  <path d="M115.8 185.1c1.5 7.1 4.7 21.8 4.9 22 .3-.7 3.5-15.6 4.9-22.4h-9.9c0 .1.1.3.1.4zM84.9 184h-2.7c.2.2.4.5.7.7h2.7c-.3-.2-.5-.5-.7-.7zm66.6.7c.2-.2.4-.5.7-.7H151c-.2.2-.4.5-.7.7h1.2zm4.3 0h2.6c.2-.2.4-.5.7-.7h-2.6c-.2.2-.4.5-.7.7zm-30.2 0c.1-.3.2-.5.3-.7h-10.5c.1.2.3.4.3.7h9.9zm-34.5 0c-.2-.2-.4-.5-.7-.7H89c.2.2.4.5.7.7h1.4z" class="st4"/>
  <path d="M1015.4 108.5v-1H219.2l-.2-.1v1.1zM208.9 98.4l-16.5-16.5c-.7-.7-1-1.3-1-2.3V30.8c0-1.4 0-1.4-1.4-1.4h-49c-.8 0-1.3-.2-1.9-.8l-17.8-17.8c-.8-.8-.6-.9-1.5 0-5.9 5.9-11.9 11.8-17.8 17.8-.6.6-1.1.8-1.9.8H50.9c-1.3 0-1.2-.2-1.2 1.2v49.3c0 .7-.2 1.2-.7 1.7L23.6 107l-.4.4c-.4.5-.4.7 0 1.1l.4.4L49 134.3c.5.5.7 1 .7 1.7v27.7c0 .7 0 1 .8 1.8 0 0 7.4 7.7 17.7 18.5h.8l-17.7-18.6c-.7-.7-.9-1.4-.9-2.3v-27.3c0-.7-.2-1.2-.7-1.7L24.6 109c-.3-.3-.6-.6-.9-.8.3-.6.6-.8.9-1L49.8 82c.5-.5.7-1.1.7-1.8V31.5c0-1.5-.2-1.3 1.2-1.3h48.7c.8 0 1.3-.2 1.9-.8 5.8-5.9 11.7-11.7 17.5-17.5.2-.2.5-.5.8-.7.3.1.5.4.8.7 5.9 5.8 11.7 11.7 17.5 17.5.5.6 1 .8 1.8.8h48.8c.4 0 .8-.1 1.2.1.2.4.1.9.1 1.3v48.6c0 .8.2 1.3.8 1.9l25.2 25.2c.9.9.9.7 0 1.6-8.4 8.5-16.9 16.9-25.3 25.3-.5.5-.7 1-.7 1.7v27.7c0 .7-.2 1.2-.7 1.7-5.9 6.2-11.9 12.5-17.8 18.7h.9c5.9-6.2 11.7-12.3 17.6-18.5.5-.5.7-1 .7-1.8V136c0-.7.1-1.1.6-1.6 2.8-2.7 5.6-5.5 8.4-8.3l16.8-16.8c.3-.3.8-.6 1.3-.8h.4v-1.1l-1.3-.2-8.8-8.8zm-87.5 139.1c-.2.2-.5.4-.7.7-.4-.2-.6-.5-.9-.8-1.6-1.7-3.2-3.3-4.7-5l-25.3-26 .3-.3-.6-.6c-6.6-7-13.2-13.9-19.8-20.8h-.9c15.4 16.2 37.1 39 50.6 53.2.4.5.8.9 1.3 1.4.2-.4.5-.6.7-.9 17-17.9 34.1-35.8 51.1-53.7h-.9c-16.7 17.6-33.5 35.2-50.2 52.8z" class="st5"/>
  <path d="M69 184h-.9c.2.2.4.5.7.7h.9l-.7-.7zm102.6.7h.9c.2-.2.4-.5.7-.7h-.9c-.2.2-.4.5-.7.7zm-81.8 21.7 25.3 26c-8.3-8.8-16.6-17.5-25-26.3l-.3.3zm154-67.5h-4v-8.2h-7.5v8.2h-4v-19.1h4v7.5h7.5v-7.5h4v19.1zm11.8-14.9c1.3 0 2.5.3 3.5.8s1.7 1.3 2.3 2.2c.5 1 .8 2.2.8 3.6v1.9h-9.4c0 1.1.4 2 1 2.6s1.5 1 2.6 1c.9 0 1.8-.1 2.6-.3.8-.2 1.6-.5 2.4-.9v3.1c-.7.4-1.5.6-2.3.8s-1.7.2-2.9.2c-1.5 0-2.8-.3-3.9-.8s-2-1.4-2.6-2.5-1-2.5-1-4.2.3-3.1.9-4.3c.6-1.1 1.4-2 2.4-2.6 1.1-.3 2.3-.6 3.6-.6zm.1 2.9c-.8 0-1.4.2-1.9.7-.5.5-.8 1.3-.9 2.3h5.6c0-.6-.1-1.1-.3-1.6-.2-.5-.5-.8-.9-1.1-.5-.2-1-.3-1.6-.3zm15-2.6v14.6h-4v-14.6h4zm-2-5.7c.6 0 1.1.1 1.5.4s.6.8.6 1.5-.2 1.3-.6 1.5c-.4.3-.9.4-1.5.4s-1.1-.1-1.5-.4-.6-.8-.6-1.5.2-1.3.6-1.5.9-.4 1.5-.4zm21.8 5.4c2 0 3.5.4 4.5 1.3s1.6 2.1 1.6 3.9v9.7h-2.8l-.8-2h-.1c-.4.5-.8.9-1.3 1.3-.4.3-.9.6-1.5.7-.6.2-1.3.2-2.1.2-.9 0-1.6-.2-2.3-.5-.7-.3-1.2-.8-1.6-1.5s-.6-1.6-.6-2.6c0-1.5.5-2.7 1.6-3.4s2.7-1.1 4.9-1.2l2.5-.1v-.6c0-.8-.2-1.3-.6-1.7-.4-.4-1-.5-1.7-.5s-1.4.1-2.1.3c-.7.2-1.4.5-2 .8l-1.3-2.7c.8-.4 1.6-.7 2.6-1 1.1-.3 2.1-.4 3.1-.4zm2.1 8.1-1.5.1c-1.3 0-2.2.3-2.7.7s-.7 1-.7 1.7c0 .6.2 1 .5 1.3.4.3.8.4 1.4.4.9 0 1.6-.3 2.2-.8s.9-1.2.9-2.2l-.1-1.2zm2.3-12.1v2.8h-8.8V120h8.8zm11.1-1.4v9.1c0 .5 0 1.1-.1 1.6 0 .5-.1 1.1-.1 1.6h.1c.3-.4.5-.8.8-1.1.3-.4.6-.7.9-1.1l4.1-4.4h4.5l-5.8 6.3 6.1 8.3h-4.6l-4.2-5.9-1.7 1.4v4.5h-4v-20.3h4zm27.1 13c0 1.2-.2 2.3-.5 3.2s-.8 1.7-1.4 2.4c-.6.6-1.4 1.1-2.2 1.5-.9.3-1.9.5-2.9.5s-2-.2-2.8-.5c-.9-.3-1.6-.8-2.2-1.5s-1.1-1.4-1.5-2.4c-.3-.9-.5-2-.5-3.2 0-1.6.3-3 .9-4.1s1.4-2 2.5-2.6 2.3-.9 3.8-.9c1.4 0 2.6.3 3.6.9 1.1.6 1.9 1.4 2.5 2.6.4 1.1.7 2.5.7 4.1zm-10.1 0c0 1 .1 1.8.3 2.4.2.7.5 1.1 1 1.5.4.3 1 .5 1.7.5s1.3-.2 1.7-.5c.4-.3.8-.8 1-1.5s.3-1.5.3-2.4c0-1-.1-1.8-.3-2.4-.2-.6-.5-1.1-1-1.4-.4-.3-1-.5-1.7-.5-1.1 0-1.8.4-2.3 1.1-.4.7-.7 1.7-.7 3.2zm23-7.6c1.6 0 2.8.4 3.8 1.3.9.8 1.4 2.2 1.4 4.1v9.5h-4v-8.5c0-1-.2-1.8-.6-2.4-.4-.5-1-.8-1.8-.8-1.2 0-2 .4-2.5 1.2-.4.8-.7 2-.7 3.6v6.9h-4v-14.6h3l.5 1.9h.2c.3-.5.7-.9 1.2-1.2.5-.3 1-.5 1.6-.7.7-.2 1.3-.3 1.9-.3zm14.9 21.3c-2 0-3.6-.4-4.7-1.1-1.1-.7-1.6-1.7-1.6-3 0-.9.3-1.6.8-2.2.5-.6 1.4-1 2.4-1.3-.4-.2-.8-.5-1.1-.8-.3-.4-.5-.8-.5-1.3 0-.6.2-1 .5-1.4s.8-.7 1.4-1.1c-.8-.3-1.4-.9-1.8-1.6-.4-.7-.7-1.6-.7-2.6 0-1.1.2-2 .7-2.7s1.1-1.3 2-1.7c.9-.4 2-.6 3.3-.6.3 0 .6 0 .9.1.4 0 .7.1 1 .1s.5.1.6.1h5.1v2l-2.3.6c.2.3.4.7.5 1 .1.4.2.8.2 1.2 0 1.6-.5 2.8-1.6 3.7s-2.6 1.3-4.5 1.3c-.5 0-.9-.1-1.3-.1-.2.2-.4.3-.5.5s-.2.4-.2.5c0 .2.1.4.2.5.2.1.4.2.7.3.3.1.7.1 1.2.1h2.5c1.6 0 2.8.3 3.7 1 .8.7 1.3 1.7 1.3 3 0 1.7-.7 3-2.1 4-1.4 1-3.5 1.5-6.1 1.5zm.2-2.6c.9 0 1.8-.1 2.4-.3.7-.2 1.2-.4 1.6-.8.4-.3.5-.7.5-1.2 0-.4-.1-.7-.3-.9-.2-.2-.5-.4-1-.4-.4-.1-1-.1-1.6-.1h-2.1c-.5 0-.9.1-1.3.2-.4.2-.7.4-.9.7-.2.3-.3.6-.3 1 0 .5.3 1 .8 1.3.5.4 1.2.5 2.2.5zm.6-11c.7 0 1.3-.2 1.6-.7.3-.5.5-1.1.5-1.9 0-.9-.2-1.5-.5-2-.4-.4-.9-.7-1.6-.7s-1.3.2-1.6.7c-.4.4-.5 1.1-.5 2 0 .8.2 1.4.5 1.9.3.4.9.7 1.6.7zM379 124c2 0 3.5.4 4.5 1.3s1.6 2.1 1.6 3.9v9.7h-2.8l-.8-2h-.1c-.4.5-.8.9-1.3 1.3-.4.3-.9.6-1.5.7-.6.2-1.3.2-2.1.2-.9 0-1.6-.2-2.3-.5-.7-.3-1.2-.8-1.6-1.5s-.6-1.6-.6-2.6c0-1.5.5-2.7 1.6-3.4s2.7-1.1 4.9-1.2l2.5-.1v-.6c0-.8-.2-1.3-.6-1.7-.4-.4-1-.5-1.7-.5s-1.4.1-2.1.3c-.7.2-1.4.5-2 .8l-1.3-2.7c.8-.4 1.6-.7 2.6-1 1.1-.3 2.1-.4 3.1-.4zm2.1 8.1-1.5.1c-1.3 0-2.2.3-2.7.7s-.7 1-.7 1.7c0 .6.2 1 .5 1.3.4.3.8.4 1.4.4.9 0 1.6-.3 2.2-.8s.9-1.2.9-2.2l-.1-1.2zm34.8-8.1c1.7 0 2.9.4 3.7 1.3.9.8 1.3 2.2 1.3 4.1v9.5h-4v-8.5c0-1-.2-1.8-.5-2.4-.4-.5-.9-.8-1.7-.8-1.1 0-1.8.4-2.2 1.1-.4.7-.7 1.8-.7 3.2v7.3h-4v-8.5c0-.7-.1-1.3-.2-1.7-.2-.5-.4-.8-.7-1.1-.3-.2-.7-.4-1.2-.4-.7 0-1.3.2-1.7.6-.4.4-.7.9-.9 1.6-.2.7-.3 1.6-.3 2.6v6.9h-4v-14.6h3l.5 1.9h.2c.3-.5.7-.9 1.1-1.2.5-.3.9-.5 1.5-.7.5-.1 1.1-.2 1.6-.2 1.1 0 2 .2 2.7.5s1.3.9 1.7 1.6h.4c.4-.7 1-1.3 1.8-1.6 1-.3 1.8-.5 2.6-.5zm16.4 0c2 0 3.5.4 4.5 1.3s1.6 2.1 1.6 3.9v9.7h-2.8l-.8-2h-.1c-.4.5-.8.9-1.3 1.3-.4.3-.9.6-1.5.7-.6.2-1.3.2-2.1.2-.9 0-1.6-.2-2.3-.5-.7-.3-1.2-.8-1.6-1.5s-.6-1.6-.6-2.6c0-1.5.5-2.7 1.6-3.4s2.7-1.1 4.9-1.2l2.5-.1v-.6c0-.8-.2-1.3-.6-1.7-.4-.4-1-.5-1.7-.5s-1.4.1-2.1.3c-.7.2-1.4.5-2 .8l-1.3-2.7c.8-.4 1.6-.7 2.6-1 1.1-.3 2.1-.4 3.1-.4zm2.2 8.1-1.5.1c-1.3 0-2.2.3-2.7.7s-.7 1-.7 1.7c0 .6.2 1 .5 1.3.4.3.8.4 1.4.4.9 0 1.6-.3 2.2-.8s.9-1.2.9-2.2l-.1-1.2zm2.3-12.1v2.8H428V120h8.8zm21.5 16c.4 0 .9 0 1.3-.1l1.2-.3v3c-.4.2-1 .3-1.6.5-.6.1-1.3.2-2.1.2-.9 0-1.7-.1-2.3-.4-.7-.3-1.2-.8-1.6-1.5s-.6-1.7-.6-2.9v-7h-1.9v-1.7l2.2-1.3 1.1-3.1h2.5v3.1h4.1v3h-4.1v7c0 .6.2 1 .5 1.3.3.1.7.2 1.3.2zm12.8-12c1.3 0 2.5.3 3.5.8s1.7 1.3 2.3 2.2c.5 1 .8 2.2.8 3.6v1.9h-9.4c0 1.1.4 2 1 2.6s1.5 1 2.6 1c.9 0 1.8-.1 2.6-.3.8-.2 1.6-.5 2.4-.9v3.1c-.7.4-1.5.6-2.3.8s-1.7.2-2.9.2c-1.5 0-2.8-.3-3.9-.8s-2-1.4-2.6-2.5-1-2.5-1-4.2.3-3.1.9-4.3c.6-1.1 1.4-2 2.4-2.6 1-.3 2.2-.6 3.6-.6zm0 2.9c-.8 0-1.4.2-1.9.7-.5.5-.8 1.3-.9 2.3h5.6c0-.6-.1-1.1-.3-1.6-.2-.5-.5-.8-.9-1.1-.5-.2-1-.3-1.6-.3zm35 12h-4.6l-5-8-1.7 1.2v6.8h-4v-19.1h4v8.7c.3-.4.5-.7.8-1.1s.5-.7.8-1.1l5.2-6.5h4.5l-6.7 8.4 6.7 10.7zm9.4-14.9c2 0 3.5.4 4.5 1.3s1.6 2.1 1.6 3.9v9.7h-2.8l-.8-2h-.1c-.4.5-.8.9-1.3 1.3-.4.3-.9.6-1.5.7-.6.2-1.3.2-2.1.2-.9 0-1.6-.2-2.3-.5-.7-.3-1.2-.8-1.6-1.5s-.6-1.6-.6-2.6c0-1.5.5-2.7 1.6-3.4s2.7-1.1 4.9-1.2l2.5-.1v-.6c0-.8-.2-1.3-.6-1.7-.4-.4-1-.5-1.7-.5s-1.4.1-2.1.3c-.7.2-1.4.5-2 .8l-1.3-2.7c.8-.4 1.6-.7 2.6-1 1.1-.3 2-.4 3.1-.4zm2.1 8.1-1.5.1c-1.3 0-2.2.3-2.7.7s-.7 1-.7 1.7c0 .6.2 1 .5 1.3.4.3.8.4 1.4.4.9 0 1.6-.3 2.2-.8.6-.5.9-1.2.9-2.2v-1.2h-.1zm17.5-8.1h.7c.3 0 .5 0 .7.1l-.3 3.7c-.1 0-.3-.1-.6-.1h-.6c-.5 0-1 .1-1.5.2s-.9.3-1.3.6-.7.7-.9 1.1c-.2.5-.3 1-.3 1.7v7.4h-4v-14.6h3l.6 2.4h.2c.3-.5.6-.9 1.1-1.4.4-.4.9-.7 1.5-1 .5.1 1.1-.1 1.7-.1zm11.3 0c2 0 3.5.4 4.5 1.3s1.6 2.1 1.6 3.9v9.7h-2.8l-.8-2h-.1c-.4.5-.8.9-1.3 1.3-.4.3-.9.6-1.5.7-.6.2-1.3.2-2.1.2-.9 0-1.6-.2-2.3-.5s-1.2-.8-1.6-1.5c-.4-.7-.6-1.6-.6-2.6 0-1.5.5-2.7 1.6-3.4s2.7-1.1 4.9-1.2l2.5-.1v-.6c0-.8-.2-1.3-.6-1.7-.4-.4-1-.5-1.7-.5s-1.4.1-2.1.3c-.7.2-1.4.5-2 .8l-1.3-2.7c.8-.4 1.6-.7 2.6-1 1.1-.3 2.1-.4 3.1-.4zm2.1 8.1-1.5.1c-1.3 0-2.2.3-2.7.7s-.7 1-.7 1.7c0 .6.2 1 .5 1.3.4.3.8.4 1.4.4.9 0 1.6-.3 2.2-.8.6-.5.9-1.2.9-2.2v-1.2h-.1zm13.4-7.8v14.6h-4v-14.6h4zm-2-5.7c.6 0 1.1.1 1.5.4s.6.8.6 1.5-.2 1.3-.6 1.5c-.4.3-.9.4-1.5.4s-1.1-.1-1.5-.4-.6-.8-.6-1.5.2-1.3.6-1.5.9-.4 1.5-.4zm13.6 17.4c.4 0 .9 0 1.3-.1l1.2-.3v3c-.4.2-1 .3-1.6.5-.6.1-1.3.2-2.1.2-.9 0-1.7-.1-2.3-.4-.7-.3-1.2-.8-1.6-1.5-.4-.7-.6-1.7-.6-2.9v-7h-1.9v-1.7l2.2-1.3 1.1-3.1h2.5v3.1h4.1v3h-4.1v7c0 .6.2 1 .5 1.3.4.1.8.2 1.3.2zm10.8-11.7v14.6h-4v-14.6h4zm-2-5.7c.6 0 1.1.1 1.5.4s.6.8.6 1.5-.2 1.3-.6 1.5c-.4.3-.9.4-1.5.4s-1.1-.1-1.5-.4-.6-.8-.6-1.5.2-1.3.6-1.5c.4-.2.9-.4 1.5-.4zM257.6 76.8H256c-.1-1.2-.3-2.2-.6-3s-.7-1.4-1.2-1.9-1.1-.8-1.9-1c-.7-.2-1.6-.3-2.6-.3s-1.7 0-2.3.1c-.6 0-1 .1-1.3.2s-.5.2-.6.3c-.1.1-.1.3-.1.6V91c0 .8 0 1.5.1 2 .1.6.4 1 .7 1.4.3.3.8.6 1.5.8.7.2 1.5.3 2.6.3V97h-15.4v-1.5c1.1 0 2-.1 2.6-.3.7-.2 1.2-.5 1.5-.8.4-.4.6-.8.7-1.4.1-.6.2-1.2.2-2V71.8c0-.2 0-.4-.1-.6-.1-.1-.2-.3-.5-.3-.3-.1-.7-.2-1.2-.2s-1.1-.1-1.9-.1c-.9 0-1.7 0-2.5.1s-1.5.3-2.1.7c-.6.4-1.1 1-1.5 1.8s-.6 2-.6 3.5h-1.4l.4-8.1h28.7l.4 8.2zm29.7-1c0 2-.6 3.7-1.8 5.1-1.2 1.4-3 2.3-5.6 2.8l8.5 9.8c.6.7 1.3 1.2 2.1 1.6.8.3 1.6.5 2.5.5V97h-8.7l-9.1-11.2c-.6-.7-1.1-1.2-1.6-1.5-.4-.3-.9-.4-1.2-.4v7.2c0 .9.1 1.7.2 2.2.1.6.4 1 .7 1.3.4.3.9.5 1.6.7.7.1 1.7.1 2.8.1V97H263v-1.5c.8 0 1.5 0 1.9-.1.5-.1.9-.3 1.2-.6.3-.3.5-.7.6-1.3.1-.6.1-1.3.1-2.1v-17c0-.9 0-1.5-.1-2.1-.1-.5-.2-1-.5-1.2-.2-.3-.6-.5-1.1-.6-.4-.1-1-.2-1.8-.3v-1.5H276c3.5 0 6.3.6 8.2 1.9 2.1 1.3 3.1 3 3.1 5.2zm-15 6h2.4c2.3 0 4-.4 5.1-1.3 1.2-.9 1.7-2.4 1.7-4.4 0-1.6-.5-2.8-1.4-3.8-1-1-2.3-1.4-4-1.4H273c-.4 0-.7.2-.7.6v10.3zM309.8 97h-13.1v-1.5c.8 0 1.5-.1 2-.2s.9-.4 1.2-.8c.3-.4.5-.9.6-1.5.1-.7.1-1.6.1-2.8V75.5c0-1-.1-1.9-.1-2.5-.1-.7-.2-1.2-.5-1.6-.2-.4-.6-.7-1.1-.8-.4-.2-1-.3-1.8-.3v-1.5h12.4v1.5c-.8 0-1.4.2-1.8.3-.4.1-.8.4-1 .8s-.4.9-.5 1.6-.1 1.5-.1 2.5v14.8c0 1.2 0 2.1.1 2.8.1.7.3 1.2.6 1.5.3.4.7.6 1.2.8.5.1 1.2.2 2 .2V97h-.2zm29.6.4-16.3-23.2h-.1V90c0 1.2 0 2.2.1 2.9.1.7.3 1.3.6 1.7.3.4.7.6 1.2.8.5.1 1.2.2 2 .2V97H316v-1.5c.9 0 1.6-.1 2.2-.2s1-.4 1.3-.8.5-.9.6-1.5c.1-.7.1-1.6.1-2.8V75.5c0-1 0-1.9-.1-2.5-.1-.7-.3-1.2-.6-1.6-.3-.4-.7-.7-1.2-.8-.5-.2-1.1-.3-2-.3v-1.5h10.2L341.3 90h.1V75.8c0-1.2 0-2.2-.1-2.9-.1-.7-.3-1.3-.6-1.7-.3-.4-.7-.6-1.2-.8-.5-.1-1.1-.2-1.9-.2v-1.5h10.9v1.5c-.9 0-1.6.1-2.2.3-.5.1-1 .4-1.3.7-.3.4-.5.9-.6 1.6s-.1 1.6-.1 2.7v21.9h-4.9zm28-.4h-13.1v-1.5c.8 0 1.5-.1 2-.2s.9-.4 1.2-.8c.3-.4.5-.9.6-1.5.1-.7.1-1.6.1-2.8V75.5c0-1-.1-1.9-.1-2.5-.1-.7-.2-1.2-.5-1.6-.2-.4-.6-.7-1.1-.8-.4-.2-1-.3-1.8-.3v-1.5H367v1.5c-.8 0-1.4.2-1.8.3-.4.1-.8.4-1 .8s-.4.9-.5 1.6-.1 1.5-.1 2.5v14.8c0 1.2 0 2.1.1 2.8.1.7.3 1.2.6 1.5.3.4.7.6 1.2.8.5.1 1.2.2 2 .2V97h-.1zm34.9-20.2h-1.6c-.1-1.2-.3-2.2-.6-3-.3-.8-.7-1.4-1.2-1.9s-1.1-.8-1.9-1c-.7-.2-1.6-.3-2.6-.3s-1.7 0-2.3.1c-.6 0-1 .1-1.3.2s-.5.2-.6.3c-.1.1-.1.3-.1.6V91c0 .8.1 1.5.1 2 .1.6.4 1 .7 1.4.3.3.8.6 1.5.8.7.2 1.5.3 2.6.3V97h-15.4v-1.5c1.1 0 2-.1 2.6-.3.7-.2 1.2-.5 1.5-.8.4-.4.6-.8.7-1.4s.2-1.2.2-2V71.8c0-.2 0-.4-.1-.6-.1-.1-.2-.3-.5-.3-.3-.1-.7-.2-1.2-.2s-1.1-.1-1.9-.1c-.9 0-1.7 0-2.5.1s-1.5.3-2.1.7c-.6.4-1.1 1-1.5 1.8s-.6 2-.6 3.5h-1.4l.4-8.1h28.7l.4 8.2zm7.8-3.4c-.4-.6-.7-1.2-1-1.6s-.6-.7-.9-1c-.3-.2-.7-.4-1-.5-.4-.1-.8-.1-1.2-.1v-1.5h12.3v1.5c-1 0-1.8.1-2.2.3-.4.2-.6.5-.6.9 0 .2.1.5.2.9.1.3.4.8.7 1.4l5.2 10h.1l4.6-7.7c.8-1.4 1.4-2.4 1.7-3 .3-.7.5-1.2.5-1.6s-.2-.7-.6-.8c-.4-.2-1.1-.3-2.1-.3v-1.5h9.2v1.5c-.5 0-1 .1-1.5.3-.4.2-.9.5-1.4 1s-1 1.2-1.6 2.1-1.3 2-2.1 3.5l-5.4 9.2V90c0 1.2 0 2.2.1 2.9.1.7.3 1.3.6 1.7.3.4.7.6 1.2.7s1.1.2 1.9.2V97h-13.1v-1.5c.8 0 1.4-.1 1.9-.2s.9-.4 1.2-.7.5-.9.6-1.6.2-1.6.2-2.8v-3.4l-7.5-13.4zm65.8-4.6h1.8L477 78h-1.5c-.5-2.3-1.5-4-3-5.3s-3.3-1.9-5.4-1.9c-1.4 0-2.7.3-3.9.9-1.1.6-2.1 1.4-2.9 2.5s-1.3 2.3-1.8 3.9c-.4 1.5-.6 3.2-.6 5.1 0 3.8.8 6.7 2.3 8.8 1.6 2 3.9 3 6.9 3 2.4 0 4.5-.7 6.1-2s2.8-3.3 3.5-5.9h1.6V97h-1.7l-.5-2.9c-2.7 2.2-6 3.3-9.8 3.3-2.2 0-4.2-.3-6.1-1-1.8-.7-3.4-1.6-4.6-2.8-1.3-1.2-2.3-2.7-3-4.4-.7-1.7-1-3.7-1-5.8 0-2.2.4-4.3 1.1-6.1.7-1.8 1.8-3.4 3.1-4.7 1.3-1.3 2.9-2.3 4.8-3s3.9-1.1 6.2-1.1c1.5 0 2.9.2 4.2.6 1.3.4 2.7 1.1 4.2 2l.7-2.3zm26.3 19.7h-10.4c-1.2 2.6-1.7 4.4-1.7 5.4 0 .7.3 1.2.8 1.4.6.2 1.4.3 2.5.3V97h-10.1v-1.5c.6-.1 1.1-.2 1.5-.3.4-.1.8-.3 1.1-.5.3-.2.6-.5.9-.8.2-.4.5-.8.7-1.3l9.7-24.2h2.7l8.8 21.4c.5 1.2.9 2.2 1.3 2.9.4.7.7 1.3 1.1 1.7.4.4.9.6 1.4.8.5.1 1.2.3 2.1.3V97h-13.9v-1.5c1.2 0 2-.2 2.5-.4s.8-.6.8-1.2c0-.3-.1-.8-.3-1.3-.2-.5-.4-1.2-.7-2l-.8-2.1zm-9.5-2.2h8.7l-4.2-11.1h-.1l-4.4 11.1zm51.7-9.5h-1.6c-.1-1.2-.3-2.2-.6-3s-.7-1.4-1.2-1.9-1.1-.8-1.9-1c-.7-.2-1.6-.3-2.6-.3s-1.7 0-2.3.1c-.6 0-1 .1-1.3.2s-.5.2-.6.3c-.1.1-.1.3-.1.6V91c0 .8 0 1.5.1 2 .1.6.4 1 .7 1.4.3.3.8.6 1.5.8.7.2 1.5.3 2.6.3V97h-15.4v-1.5c1.1 0 2-.1 2.6-.3.7-.2 1.2-.5 1.5-.8.4-.4.6-.8.7-1.4.1-.6.2-1.2.2-2V71.8c0-.2-.1-.4-.1-.6-.1-.1-.2-.3-.5-.3-.3-.1-.7-.2-1.2-.2s-1.1-.1-1.9-.1c-.9 0-1.7 0-2.5.1s-1.5.3-2.1.7c-.6.4-1.1 1-1.5 1.8s-.6 2-.6 3.5h-1.4l.4-8.1H544l.4 8.2zM578 91.1c0 .9 0 1.7.1 2.3.1.6.3 1 .6 1.3s.7.5 1.2.6 1.2.2 2 .2V97h-13.5v-1.5c.9 0 1.6-.1 2.2-.2.6-.1 1-.3 1.3-.6.3-.3.5-.7.6-1.2s.1-1.2.1-2.1v-7.7H559v7.4c0 .9 0 1.7.1 2.3.1.6.3 1 .6 1.3s.7.5 1.2.6c.6.1 1.3.2 2.2.2V97h-13.4v-1.5c.8 0 1.5-.1 2-.2s.9-.3 1.2-.6c.3-.3.5-.7.6-1.2s.1-1.2.1-2.1v-17c0-.9-.1-1.5-.1-2.1-.1-.5-.2-1-.5-1.2-.2-.3-.6-.5-1.1-.6-.4-.1-1-.2-1.8-.3v-1.5h12.7v1.5c-.8 0-1.5.1-2 .2s-.9.3-1.1.7c-.3.3-.5.8-.6 1.3-.1.6-.1 1.3-.1 2.2v6.8h13.6v-7c0-.9-.1-1.5-.1-2.1-.1-.5-.3-1-.6-1.2-.3-.3-.7-.5-1.2-.6s-1.2-.2-2-.3v-1.5h12.7v1.5c-.7 0-1.3.1-1.8.2-.4.1-.8.3-1 .7-.2.3-.4.8-.5 1.3-.1.6-.1 1.3-.1 2.2v16.5zm25.8-22.7c2.2 0 4.3.4 6.2 1.1 1.9.8 3.6 1.8 5 3.1s2.5 2.9 3.3 4.7c.8 1.8 1.2 3.7 1.2 5.8 0 2-.4 3.8-1.2 5.6-.8 1.7-1.9 3.3-3.3 4.6-1.4 1.3-3 2.3-5 3-1.9.7-4 1.1-6.1 1.1s-4.2-.4-6.1-1.1c-1.9-.8-3.6-1.8-5-3-1.4-1.3-2.5-2.8-3.3-4.6-.8-1.7-1.2-3.6-1.2-5.6 0-2.1.4-4 1.2-5.8s1.9-3.3 3.3-4.7c1.4-1.3 3.1-2.4 5-3.1 1.7-.7 3.8-1.1 6-1.1zm0 26.6c1.4 0 2.7-.3 3.9-.8 1.1-.6 2.1-1.3 2.9-2.3.8-1 1.4-2.3 1.8-3.7.4-1.5.7-3.1.7-4.9 0-1.9-.2-3.6-.7-5.1-.4-1.5-1-2.9-1.8-3.9-.8-1.1-1.8-1.9-2.9-2.5-1.1-.6-2.4-.9-3.9-.9-1.4 0-2.7.3-3.9.9-1.1.6-2.1 1.4-2.9 2.5-.8 1.1-1.4 2.4-1.9 3.9-.4 1.5-.6 3.2-.6 5.1 0 1.8.2 3.5.6 4.9.4 1.4 1.1 2.7 1.9 3.7.8 1 1.8 1.8 2.9 2.3s2.4.8 3.9.8zm47.1 2h-25.3v-1.5c.8 0 1.5-.1 2-.2s.9-.3 1.2-.6c.3-.3.5-.7.6-1.2s.1-1.2.1-2.1v-17c0-.9 0-1.5-.1-2.1-.1-.5-.2-1-.5-1.2-.2-.3-.6-.5-1.1-.6-.4-.1-1-.2-1.8-.3v-1.5h12.7v1.5c-.8 0-1.5.1-2 .2s-.9.3-1.1.7c-.3.3-.5.8-.6 1.3-.1.6-.1 1.3-.1 2.2V90c0 1 .1 1.9.3 2.5s.6 1.1 1.1 1.5c.5.3 1.2.6 2.1.7.9.1 1.9.2 3.2.2 1.4 0 2.6-.1 3.6-.3 1-.2 1.8-.5 2.4-1 .7-.5 1.2-1.1 1.6-1.9.4-.8.7-1.9 1-3.2h1.5l-.8 8.5zm19.2 0H657v-1.5c.8 0 1.5-.1 2-.2s.9-.4 1.2-.8.5-.9.6-1.5c.1-.7.1-1.6.1-2.8V75.5c0-1 0-1.9-.1-2.5-.1-.7-.2-1.2-.5-1.6-.2-.4-.6-.7-1.1-.8-.4-.2-1-.3-1.8-.3v-1.5h12.4v1.5c-.8 0-1.4.2-1.8.3-.4.1-.8.4-1 .8s-.4.9-.5 1.6-.1 1.5-.1 2.5v14.8c0 1.2 0 2.1.1 2.8.1.7.3 1.2.6 1.5.3.4.7.6 1.2.8.5.1 1.2.2 2 .2V97h-.2zm30.6-28.2h1.8l-.7 9.3h-1.5c-.5-2.3-1.5-4-3-5.3s-3.3-1.9-5.4-1.9c-1.4 0-2.7.3-3.9.9-1.1.6-2.1 1.4-2.9 2.5-.8 1.1-1.3 2.3-1.8 3.9-.4 1.5-.6 3.2-.6 5.1 0 3.8.8 6.7 2.3 8.8 1.6 2 3.9 3 6.9 3 2.4 0 4.5-.7 6.1-2s2.8-3.3 3.5-5.9h1.6V97h-1.7l-.5-2.9c-2.7 2.2-6 3.3-9.8 3.3-2.2 0-4.2-.3-6.1-1-1.8-.7-3.4-1.6-4.6-2.8-1.3-1.2-2.3-2.7-3-4.4-.7-1.7-1-3.7-1-5.8 0-2.2.4-4.3 1.1-6.1.7-1.8 1.8-3.4 3.1-4.7 1.3-1.3 2.9-2.3 4.8-3 1.9-.7 3.9-1.1 6.2-1.1 1.5 0 2.9.2 4.2.6s2.7 1.1 4.2 2l.7-2.3zm47.3 0h1.8l-.7 9.3h-1.5c-.5-2.3-1.5-4-3-5.3s-3.3-1.9-5.4-1.9c-1.4 0-2.7.3-3.9.9-1.1.6-2.1 1.4-2.9 2.5-.8 1.1-1.3 2.3-1.8 3.9-.4 1.5-.6 3.2-.6 5.1 0 3.8.8 6.7 2.3 8.8 1.6 2 3.9 3 6.9 3 2.4 0 4.5-.7 6.1-2s2.8-3.3 3.5-5.9h1.6V97h-1.7l-.5-2.9c-2.7 2.2-6 3.3-9.8 3.3-2.2 0-4.2-.3-6.1-1-1.8-.7-3.4-1.6-4.6-2.8-1.3-1.2-2.3-2.7-3-4.4-.7-1.7-1-3.7-1-5.8 0-2.2.4-4.3 1.1-6.1s1.8-3.4 3.1-4.7c1.3-1.3 2.9-2.3 4.8-3 1.9-.7 3.9-1.1 6.2-1.1 1.5 0 2.9.2 4.2.6s2.7 1.1 4.2 2l.7-2.3zm25.3-.4c2.2 0 4.3.4 6.2 1.1 1.9.8 3.6 1.8 5 3.1s2.5 2.9 3.3 4.7c.8 1.8 1.2 3.7 1.2 5.8 0 2-.4 3.8-1.2 5.6-.8 1.7-1.9 3.3-3.3 4.6-1.4 1.3-3 2.3-5 3-1.9.7-4 1.1-6.1 1.1-2.2 0-4.2-.4-6.1-1.1-1.9-.8-3.6-1.8-5-3-1.4-1.3-2.5-2.8-3.3-4.6-.8-1.7-1.2-3.6-1.2-5.6 0-2.1.4-4 1.2-5.8s1.9-3.3 3.3-4.7c1.4-1.3 3.1-2.4 5-3.1 1.7-.7 3.8-1.1 6-1.1zm0 26.6c1.4 0 2.7-.3 3.9-.8 1.1-.6 2.1-1.3 2.9-2.3.8-1 1.4-2.3 1.8-3.7.4-1.5.7-3.1.7-4.9 0-1.9-.2-3.6-.7-5.1-.4-1.5-1-2.9-1.8-3.9-.8-1.1-1.8-1.9-2.9-2.5-1.2-.6-2.4-.9-3.9-.9-1.4 0-2.7.3-3.9.9-1.1.6-2.1 1.4-2.9 2.5-.8 1.1-1.4 2.4-1.9 3.9-.4 1.5-.6 3.2-.6 5.1 0 1.8.2 3.5.6 4.9.4 1.4 1.1 2.7 1.9 3.7.8 1 1.8 1.8 2.9 2.3s2.4.8 3.9.8zm47.1 2h-25.3v-1.5c.8 0 1.5-.1 2-.2s.9-.3 1.2-.6c.3-.3.5-.7.6-1.2s.1-1.2.1-2.1v-17c0-.9-.1-1.5-.1-2.1-.1-.5-.2-1-.5-1.2-.2-.3-.6-.5-1.1-.6-.4-.1-1-.2-1.8-.3v-1.5h12.7v1.5c-.8 0-1.5.1-2 .2s-.9.3-1.1.7c-.3.3-.5.8-.6 1.3-.1.6-.1 1.3-.1 2.2V90c0 1 .1 1.9.3 2.5s.6 1.1 1.1 1.5c.5.3 1.2.6 2.1.7.9.1 1.9.2 3.2.2 1.4 0 2.6-.1 3.6-.3 1-.2 1.7-.5 2.4-1s1.2-1.1 1.6-1.9c.4-.8.7-1.9 1-3.2h1.5l-.8 8.5zm31.4 0h-25.3v-1.5c.8 0 1.5-.1 2-.2s.9-.3 1.2-.6c.3-.3.5-.7.6-1.2s.1-1.2.1-2.1v-17c0-.9 0-1.5-.1-2.1-.1-.5-.2-1-.5-1.2-.2-.3-.6-.5-1.1-.6-.4-.1-1-.2-1.8-.3v-1.5h12.7v1.5c-.8 0-1.5.1-2 .2s-.9.3-1.1.7c-.3.3-.5.8-.6 1.3-.1.6-.1 1.3-.1 2.2V90c0 1 .1 1.9.3 2.5s.6 1.1 1.1 1.5c.5.3 1.2.6 2.1.7.9.1 1.9.2 3.2.2 1.4 0 2.6-.1 3.6-.3 1-.2 1.8-.5 2.4-1 .7-.5 1.2-1.1 1.6-1.9.4-.8.7-1.9 1-3.2h1.5l-.8 8.5zm15.3-15.6c1.6 0 2.8 0 3.8-.1s1.7-.3 2.2-.6c.5-.3.9-.8 1.1-1.4.2-.6.4-1.4.5-2.4h1.4v10.8h-1.4c-.1-1-.3-1.8-.6-2.3-.2-.6-.6-1-1.2-1.3-.5-.3-1.3-.5-2.2-.6s-2.1-.1-3.7-.1V91c0 .8.1 1.4.3 2 .2.5.6 1 1.1 1.3s1.1.6 1.9.7c.8.1 1.8.2 3 .2 1.4 0 2.6-.1 3.5-.3 1-.2 1.8-.5 2.4-1 .6-.5 1.1-1.1 1.5-1.9s.7-1.9 1-3.1h1.5l-.6 8.4h-24.9v-1.5c.8 0 1.5-.1 2-.2s.9-.3 1.2-.6c.3-.3.5-.7.6-1.2s.1-1.2.1-2.1v-17c0-.9-.1-1.5-.1-2.1-.1-.5-.2-1-.5-1.2-.2-.3-.6-.5-1.1-.6-.4-.1-1-.2-1.8-.3V69h23.2l.3 7.2H880c-.1-1-.4-1.9-.7-2.5-.3-.7-.8-1.2-1.3-1.6-.6-.4-1.3-.7-2.2-.8-.9-.2-2-.3-3.3-.3h-4.1c-.6 0-1 .1-1.2.3-.1.1-.2.5-.2 1.1l.1 9zm37.3 16c-2.2 0-4.2-.3-6-1s-3.3-1.6-4.5-2.8c-1.2-1.2-2.2-2.7-2.9-4.4-.7-1.7-1-3.7-1-5.8 0-2.2.4-4.3 1.1-6.1.7-1.9 1.8-3.5 3-4.8 1.3-1.3 2.9-2.3 4.7-3s3.8-1.1 6-1.1c1.5 0 3 .2 4.3.6 1.4.4 2.9 1.1 4.4 2l.7-2.3h1.3V78h-1.8c-.5-2.3-1.5-4.1-3-5.4s-3.3-1.9-5.5-1.9c-2.8 0-5 1.1-6.6 3.3-1.5 2.2-2.3 5.2-2.3 9.1 0 3.8.8 6.7 2.3 8.8 1.5 2 3.7 3 6.6 3 2.1 0 3.7-.5 4.8-1.6 1.2-1.1 1.8-2.6 1.8-4.4 0-1.1-.3-1.9-.9-2.5-.6-.5-1.6-.9-3-1V84h11.9v1.5c-1.2 0-2 .3-2.5.8s-.7 1.5-.7 2.8V94c-.5 0-1 0-1.4.1-.4 0-.7.1-1.1.2-.3.1-.7.3-1.2.5-.4.2-1 .6-1.7 1-1.6 1-4 1.6-6.8 1.6zm30.3-16c1.6 0 2.8 0 3.8-.1s1.7-.3 2.2-.6c.5-.3.9-.8 1.1-1.4.2-.6.4-1.4.5-2.4h1.4v10.8h-1.4c-.1-1-.3-1.8-.6-2.3-.2-.6-.6-1-1.2-1.3-.5-.3-1.3-.5-2.2-.6s-2.1-.1-3.7-.1V91c0 .8.1 1.4.3 2 .2.5.6 1 1.1 1.3s1.1.6 1.9.7c.8.1 1.8.2 3 .2 1.4 0 2.6-.1 3.5-.3 1-.2 1.8-.5 2.4-1 .6-.5 1.1-1.1 1.5-1.9s.7-1.9 1-3.1h1.5l-.6 8.4h-24.9v-1.5c.8 0 1.5-.1 2-.2s.9-.3 1.2-.6c.3-.3.5-.7.6-1.2s.1-1.2.1-2.1v-17c0-.9-.1-1.5-.1-2.1-.1-.5-.2-1-.5-1.2-.2-.3-.6-.5-1.1-.6-.4-.1-1-.2-1.8-.3V69H949l.3 7.2h-1.6c-.1-1-.4-1.9-.7-2.5-.3-.7-.8-1.2-1.3-1.6-.6-.4-1.3-.7-2.2-.8-.9-.2-2-.3-3.3-.3h-4.1c-.6 0-1 .1-1.2.3-.1.1-.2.5-.2 1.1v9z" class="st5"/>
</svg>
